<?xml version="1.0" encoding="UTF-8" standalone="no"?>
<!-- Generated by IcoMoon.io -->

<svg
   xmlns:dc="http://purl.org/dc/elements/1.1/"
   xmlns:cc="http://creativecommons.org/ns#"
   xmlns:rdf="http://www.w3.org/1999/02/22-rdf-syntax-ns#"
   xmlns:svg="http://www.w3.org/2000/svg"
   xmlns="http://www.w3.org/2000/svg"
   xmlns:sodipodi="http://sodipodi.sourceforge.net/DTD/sodipodi-0.dtd"
   xmlns:inkscape="http://www.inkscape.org/namespaces/inkscape"
   version="1.1"
   width="45.116714"
   height="45"
   viewBox="0 0 45.116714 45"
   id="svg2"
   inkscape:version="0.91 r13725"
   sodipodi:docname="small_logo.svg">
  <sodipodi:namedview
     pagecolor="#ffffff"
     bordercolor="#666666"
     borderopacity="1"
     objecttolerance="10"
     gridtolerance="10"
     guidetolerance="10"
     inkscape:pageopacity="0"
     inkscape:pageshadow="2"
     inkscape:window-width="2560"
     inkscape:window-height="1380"
     id="namedview123"
     showgrid="false"
     inkscape:zoom="2.6074563"
     inkscape:cx="-229.92861"
     inkscape:cy="1.9772384"
     inkscape:window-x="0"
     inkscape:window-y="0"
     inkscape:window-maximized="1"
     inkscape:current-layer="svg2"
     inkscape:object-nodes="true"
     inkscape:snap-smooth-nodes="true"
     fit-margin-top="0"
     fit-margin-left="0"
     fit-margin-right="0"
     fit-margin-bottom="0" />
  <metadata
     id="metadata127">
    <rdf:RDF>
      <cc:Work
         rdf:about="">
        <dc:format>image/svg+xml</dc:format>
        <dc:type
           rdf:resource="http://purl.org/dc/dcmitype/StillImage" />
        <dc:title></dc:title>
      </cc:Work>
    </rdf:RDF>
  </metadata>
  <defs
     id="defs125" />
  <path
     style="fill:#000000;fill-opacity:1;stroke:none;stroke-width:1.00000012;stroke-miterlimit:4;stroke-dasharray:none;stroke-dashoffset:0;stroke-opacity:1"
     d="M 23.687382,0 22.569101,2.31177 18.50196,2.72175 17.227148,0.696502 14.408907,1.478328 14.713969,3.897543 11.286026,5.758252 9.3579,4.004358 6.864525,6.039086 8.299241,8.222553 5.83494,11.209128 3.415511,10.39275 1.84596,13.125033 3.974232,14.637071 2.798438,18.425272 0.257869,18.511862 0,22.044302 l 2.388458,0.44811 0.40998,4.067142 -2.127852,1.135976 1.187596,3.291214 2.11605,-0.638989 1.860708,3.427946 -1.710705,1.987748 1.951301,2.491687 2.223706,-1.492654 2.986785,2.464092 -0.57726,2.638743 2.393302,1.290617 1.6119,-2.068652 3.787991,1.176008 0.355838,2.610299 2.593023,0.12641 1.11828,-2.32673 4.067142,-0.409979 1.454943,2.207484 2.812763,-0.868415 -0.479501,-2.515077 3.427942,-1.860708 2.147231,1.750736 2.053058,-1.831635 -1.213508,-2.383193 2.464302,-2.986781 2.718382,1.055708 1.370253,-2.552787 -2.228136,-1.930867 1.176007,-3.788201 2.650119,-0.275989 0.126615,-2.872384 -2.366755,-0.918769 -0.409979,-4.067141 2.144699,-1.401217 -0.89938,-2.656864 -2.421326,0.26988 L 39.303473,11.209127 41.030614,9.151221 39.372368,7.090791 36.839172,8.222552 33.85239,5.758251 34.509285,2.999845 32.115979,1.94856 30.424448,3.897543 26.636243,2.72175 26.307585,0.166436 23.687382,0 Z m -16.453748,15.615671 4.028797,0 4.122548,11.472052 4.112014,-11.472052 4.028797,0 -5.756779,15.542565 -4.778388,0 -5.756989,-15.542565 z m 16.489984,0 14.324636,0 0,3.02934 -5.153186,0 0,12.513225 -4.00794,0 0,-12.513225 -5.16351,0 0,-3.02934 z"
     id="path4138-2"
     inkscape:connector-curvature="0" />
</svg>
