<?xml version="1.0" encoding="UTF-8" standalone="no"?>
<!-- Generated by IcoMoon.io -->

<svg
   xmlns:dc="http://purl.org/dc/elements/1.1/"
   xmlns:cc="http://creativecommons.org/ns#"
   xmlns:rdf="http://www.w3.org/1999/02/22-rdf-syntax-ns#"
   xmlns:svg="http://www.w3.org/2000/svg"
   xmlns="http://www.w3.org/2000/svg"
   xmlns:sodipodi="http://sodipodi.sourceforge.net/DTD/sodipodi-0.dtd"
   xmlns:inkscape="http://www.inkscape.org/namespaces/inkscape"
   version="1.1"
   width="448"
   height="512"
   viewBox="0 0 448 512"
   id="svg2"
   inkscape:version="0.91 r13725"
   sodipodi:docname="vtlogo.svg">
  <sodipodi:namedview
     pagecolor="#ffffff"
     bordercolor="#666666"
     borderopacity="1"
     objecttolerance="10"
     gridtolerance="10"
     guidetolerance="10"
     inkscape:pageopacity="0"
     inkscape:pageshadow="2"
     inkscape:window-width="2560"
     inkscape:window-height="1383"
     id="namedview123"
     showgrid="false"
     inkscape:zoom="2.6074563"
     inkscape:cx="32.652822"
     inkscape:cy="281.58429"
     inkscape:window-x="0"
     inkscape:window-y="31"
     inkscape:window-maximized="1"
     inkscape:current-layer="svg2"
     inkscape:object-nodes="true"
     inkscape:snap-smooth-nodes="true" />
  <metadata
     id="metadata127">
    <rdf:RDF>
      <cc:Work
         rdf:about="">
        <dc:format>image/svg+xml</dc:format>
        <dc:type
           rdf:resource="http://purl.org/dc/dcmitype/StillImage" />
        <dc:title></dc:title>
      </cc:Work>
    </rdf:RDF>
  </metadata>
  <defs
     id="defs125" />
  <g
     id="icomoon-ignore">
    <line
       id="line5"
       y2="512"
       x2="16"
       y1="0"
       x1="16"
       stroke-width="1"
       stroke="#449FDB"
       opacity="0.3" />
    <line
       id="line7"
       y2="512"
       x2="32"
       y1="0"
       x1="32"
       stroke-width="1"
       stroke="#449FDB"
       opacity="1" />
    <line
       id="line9"
       y2="512"
       x2="48"
       y1="0"
       x1="48"
       stroke-width="1"
       stroke="#449FDB"
       opacity="0.3" />
    <line
       id="line11"
       y2="512"
       x2="64"
       y1="0"
       x1="64"
       stroke-width="1"
       stroke="#449FDB"
       opacity="1" />
    <line
       id="line13"
       y2="512"
       x2="80"
       y1="0"
       x1="80"
       stroke-width="1"
       stroke="#449FDB"
       opacity="0.3" />
    <line
       id="line15"
       y2="512"
       x2="96"
       y1="0"
       x1="96"
       stroke-width="1"
       stroke="#449FDB"
       opacity="1" />
    <line
       id="line17"
       y2="512"
       x2="112"
       y1="0"
       x1="112"
       stroke-width="1"
       stroke="#449FDB"
       opacity="0.3" />
    <line
       id="line19"
       y2="512"
       x2="128"
       y1="0"
       x1="128"
       stroke-width="1"
       stroke="#449FDB"
       opacity="1" />
    <line
       id="line21"
       y2="512"
       x2="144"
       y1="0"
       x1="144"
       stroke-width="1"
       stroke="#449FDB"
       opacity="0.3" />
    <line
       id="line23"
       y2="512"
       x2="160"
       y1="0"
       x1="160"
       stroke-width="1"
       stroke="#449FDB"
       opacity="1" />
    <line
       id="line25"
       y2="512"
       x2="176"
       y1="0"
       x1="176"
       stroke-width="1"
       stroke="#449FDB"
       opacity="0.3" />
    <line
       id="line27"
       y2="512"
       x2="192"
       y1="0"
       x1="192"
       stroke-width="1"
       stroke="#449FDB"
       opacity="1" />
    <line
       id="line29"
       y2="512"
       x2="208"
       y1="0"
       x1="208"
       stroke-width="1"
       stroke="#449FDB"
       opacity="0.3" />
    <line
       id="line31"
       y2="512"
       x2="224"
       y1="0"
       x1="224"
       stroke-width="1"
       stroke="#449FDB"
       opacity="1" />
    <line
       id="line33"
       y2="512"
       x2="240"
       y1="0"
       x1="240"
       stroke-width="1"
       stroke="#449FDB"
       opacity="0.3" />
    <line
       id="line35"
       y2="512"
       x2="256"
       y1="0"
       x1="256"
       stroke-width="1"
       stroke="#449FDB"
       opacity="1" />
    <line
       id="line37"
       y2="512"
       x2="272"
       y1="0"
       x1="272"
       stroke-width="1"
       stroke="#449FDB"
       opacity="0.3" />
    <line
       id="line39"
       y2="512"
       x2="288"
       y1="0"
       x1="288"
       stroke-width="1"
       stroke="#449FDB"
       opacity="1" />
    <line
       id="line41"
       y2="512"
       x2="304"
       y1="0"
       x1="304"
       stroke-width="1"
       stroke="#449FDB"
       opacity="0.3" />
    <line
       id="line43"
       y2="512"
       x2="320"
       y1="0"
       x1="320"
       stroke-width="1"
       stroke="#449FDB"
       opacity="1" />
    <line
       id="line45"
       y2="512"
       x2="336"
       y1="0"
       x1="336"
       stroke-width="1"
       stroke="#449FDB"
       opacity="0.3" />
    <line
       id="line47"
       y2="512"
       x2="352"
       y1="0"
       x1="352"
       stroke-width="1"
       stroke="#449FDB"
       opacity="1" />
    <line
       id="line49"
       y2="512"
       x2="368"
       y1="0"
       x1="368"
       stroke-width="1"
       stroke="#449FDB"
       opacity="0.3" />
    <line
       id="line51"
       y2="512"
       x2="384"
       y1="0"
       x1="384"
       stroke-width="1"
       stroke="#449FDB"
       opacity="1" />
    <line
       id="line53"
       y2="512"
       x2="400"
       y1="0"
       x1="400"
       stroke-width="1"
       stroke="#449FDB"
       opacity="0.3" />
    <line
       id="line55"
       y2="512"
       x2="416"
       y1="0"
       x1="416"
       stroke-width="1"
       stroke="#449FDB"
       opacity="1" />
    <line
       id="line57"
       y2="512"
       x2="432"
       y1="0"
       x1="432"
       stroke-width="1"
       stroke="#449FDB"
       opacity="0.3" />
    <line
       id="line59"
       y2="16"
       x2="448"
       y1="16"
       x1="0"
       stroke-width="1"
       stroke="#449FDB"
       opacity="0.3" />
    <line
       id="line61"
       y2="32"
       x2="448"
       y1="32"
       x1="0"
       stroke-width="1"
       stroke="#449FDB"
       opacity="1" />
    <line
       id="line63"
       y2="48"
       x2="448"
       y1="48"
       x1="0"
       stroke-width="1"
       stroke="#449FDB"
       opacity="0.3" />
    <line
       id="line65"
       y2="64"
       x2="448"
       y1="64"
       x1="0"
       stroke-width="1"
       stroke="#449FDB"
       opacity="1" />
    <line
       id="line67"
       y2="80"
       x2="448"
       y1="80"
       x1="0"
       stroke-width="1"
       stroke="#449FDB"
       opacity="0.3" />
    <line
       id="line69"
       y2="96"
       x2="448"
       y1="96"
       x1="0"
       stroke-width="1"
       stroke="#449FDB"
       opacity="1" />
    <line
       id="line71"
       y2="112"
       x2="448"
       y1="112"
       x1="0"
       stroke-width="1"
       stroke="#449FDB"
       opacity="0.3" />
    <line
       id="line73"
       y2="128"
       x2="448"
       y1="128"
       x1="0"
       stroke-width="1"
       stroke="#449FDB"
       opacity="1" />
    <line
       id="line75"
       y2="144"
       x2="448"
       y1="144"
       x1="0"
       stroke-width="1"
       stroke="#449FDB"
       opacity="0.3" />
    <line
       id="line77"
       y2="160"
       x2="448"
       y1="160"
       x1="0"
       stroke-width="1"
       stroke="#449FDB"
       opacity="1" />
    <line
       id="line79"
       y2="176"
       x2="448"
       y1="176"
       x1="0"
       stroke-width="1"
       stroke="#449FDB"
       opacity="0.3" />
    <line
       id="line81"
       y2="192"
       x2="448"
       y1="192"
       x1="0"
       stroke-width="1"
       stroke="#449FDB"
       opacity="1" />
    <line
       id="line83"
       y2="208"
       x2="448"
       y1="208"
       x1="0"
       stroke-width="1"
       stroke="#449FDB"
       opacity="0.3" />
    <line
       id="line85"
       y2="224"
       x2="448"
       y1="224"
       x1="0"
       stroke-width="1"
       stroke="#449FDB"
       opacity="1" />
    <line
       id="line87"
       y2="240"
       x2="448"
       y1="240"
       x1="0"
       stroke-width="1"
       stroke="#449FDB"
       opacity="0.3" />
    <line
       id="line89"
       y2="256"
       x2="448"
       y1="256"
       x1="0"
       stroke-width="1"
       stroke="#449FDB"
       opacity="1" />
    <line
       id="line91"
       y2="272"
       x2="448"
       y1="272"
       x1="0"
       stroke-width="1"
       stroke="#449FDB"
       opacity="0.3" />
    <line
       id="line93"
       y2="288"
       x2="448"
       y1="288"
       x1="0"
       stroke-width="1"
       stroke="#449FDB"
       opacity="1" />
    <line
       id="line95"
       y2="304"
       x2="448"
       y1="304"
       x1="0"
       stroke-width="1"
       stroke="#449FDB"
       opacity="0.3" />
    <line
       id="line97"
       y2="320"
       x2="448"
       y1="320"
       x1="0"
       stroke-width="1"
       stroke="#449FDB"
       opacity="1" />
    <line
       id="line99"
       y2="336"
       x2="448"
       y1="336"
       x1="0"
       stroke-width="1"
       stroke="#449FDB"
       opacity="0.3" />
    <line
       id="line101"
       y2="352"
       x2="448"
       y1="352"
       x1="0"
       stroke-width="1"
       stroke="#449FDB"
       opacity="1" />
    <line
       id="line103"
       y2="368"
       x2="448"
       y1="368"
       x1="0"
       stroke-width="1"
       stroke="#449FDB"
       opacity="0.3" />
    <line
       id="line105"
       y2="384"
       x2="448"
       y1="384"
       x1="0"
       stroke-width="1"
       stroke="#449FDB"
       opacity="1" />
    <line
       id="line107"
       y2="400"
       x2="448"
       y1="400"
       x1="0"
       stroke-width="1"
       stroke="#449FDB"
       opacity="0.3" />
    <line
       id="line109"
       y2="416"
       x2="448"
       y1="416"
       x1="0"
       stroke-width="1"
       stroke="#449FDB"
       opacity="1" />
    <line
       id="line111"
       y2="432"
       x2="448"
       y1="432"
       x1="0"
       stroke-width="1"
       stroke="#449FDB"
       opacity="0.3" />
    <line
       id="line113"
       y2="448"
       x2="448"
       y1="448"
       x1="0"
       stroke-width="1"
       stroke="#449FDB"
       opacity="1" />
    <line
       id="line115"
       y2="464"
       x2="448"
       y1="464"
       x1="0"
       stroke-width="1"
       stroke="#449FDB"
       opacity="0.3" />
    <line
       id="line117"
       y2="480"
       x2="448"
       y1="480"
       x1="0"
       stroke-width="1"
       stroke="#449FDB"
       opacity="1" />
    <line
       id="line119"
       y2="496"
       x2="448"
       y1="496"
       x1="0"
       stroke-width="1"
       stroke="#449FDB"
       opacity="0.3" />
  </g>
  <path
     style="fill:#000000;fill-opacity:1;stroke:none;stroke-width:1.00000012;stroke-miterlimit:4;stroke-dasharray:none;stroke-dashoffset:0;stroke-opacity:1"
     d="M 235.00977 45.240234 L 224.64258 66.671875 L 186.9375 70.472656 L 175.11914 51.697266 L 148.99219 58.945312 L 151.82031 81.373047 L 120.04102 98.623047 L 102.16602 82.363281 L 79.050781 101.22656 L 92.351562 121.46875 L 69.505859 149.15625 L 47.076172 141.58789 L 32.525391 166.91797 L 52.255859 180.93555 L 41.355469 216.05469 L 17.802734 216.85742 L 15.412109 249.60547 L 37.554688 253.75977 L 41.355469 291.46484 L 21.628906 301.99609 L 32.638672 332.50781 L 52.255859 326.58398 L 69.505859 358.36328 L 53.646484 376.79102 L 71.736328 399.89062 L 92.351562 386.05273 L 120.04102 408.89648 L 114.68945 433.35938 L 136.87695 445.32422 L 151.82031 426.14648 L 186.9375 437.04883 L 190.23633 461.24805 L 214.27539 462.41992 L 224.64258 440.84961 L 262.34766 437.04883 L 275.83594 457.51367 L 301.91211 449.46289 L 297.4668 426.14648 L 329.24609 408.89648 L 349.15234 425.12695 L 368.18555 408.14648 L 356.93555 386.05273 L 379.78125 358.36328 L 404.98242 368.15039 L 417.68555 344.48438 L 397.0293 326.58398 L 407.93164 291.46484 L 432.5 288.90625 L 433.67383 262.27734 L 411.73242 253.75977 L 407.93164 216.05469 L 427.81445 203.06445 L 419.47656 178.43359 L 397.0293 180.93555 L 379.78125 149.15625 L 395.79297 130.07812 L 380.41992 110.97656 L 356.93555 121.46875 L 329.24609 98.623047 L 335.33594 73.050781 L 313.14844 63.304688 L 297.4668 81.373047 L 262.34766 70.472656 L 259.30078 46.783203 L 235.00977 45.240234 z M 82.472656 190.00781 L 119.82227 190.00781 L 158.04102 296.36133 L 196.16211 190.00781 L 233.51172 190.00781 L 180.14258 334.09766 L 135.84375 334.09766 L 82.472656 190.00781 z M 235.3457 190.00781 L 368.14453 190.00781 L 368.14453 218.0918 L 320.37109 218.0918 L 320.37109 334.09766 L 283.21484 334.09766 L 283.21484 218.0918 L 235.3457 218.0918 L 235.3457 190.00781 z "
     id="path4138-2" />
</svg>
