<?xml version="1.0" encoding="UTF-8" standalone="no"?>
<svg
   xmlns:osb="http://www.openswatchbook.org/uri/2009/osb"
   xmlns:dc="http://purl.org/dc/elements/1.1/"
   xmlns:cc="http://creativecommons.org/ns#"
   xmlns:rdf="http://www.w3.org/1999/02/22-rdf-syntax-ns#"
   xmlns:svg="http://www.w3.org/2000/svg"
   xmlns="http://www.w3.org/2000/svg"
   id="svg3563"
   viewBox="0 0 672 768"
   height="768"
   width="672"
   version="1.1">
  <metadata
     id="metadata3750">
    <rdf:RDF>
      <cc:Work
         rdf:about="">
        <dc:format>image/svg+xml</dc:format>
        <dc:type
           rdf:resource="http://purl.org/dc/dcmitype/StillImage" />
        <dc:title></dc:title>
      </cc:Work>
    </rdf:RDF>
  </metadata>
  <defs
     id="defs3748">
    <linearGradient
       osb:paint="solid"
       id="linearGradient6020">
      <stop
         id="stop6022"
         offset="0"
         style="stop-color:#000000;stop-opacity:1;" />
    </linearGradient>
    <linearGradient
       osb:paint="solid"
       id="linearGradient6002">
      <stop
         id="stop6004"
         offset="0"
         style="stop-color:#000000;stop-opacity:1;" />
    </linearGradient>
  </defs>
  <g
     id="icomoon-ignore">
    <line
       id="line3568"
       opacity="0.3"
       stroke="#449FDB"
       y2="768"
       x2="16"
       y1="0"
       x1="16"
       stroke-width="1" />
    <line
       id="line3570"
       opacity="1"
       stroke="#449FDB"
       y2="768"
       x2="32"
       y1="0"
       x1="32"
       stroke-width="1" />
    <line
       id="line3572"
       opacity="0.3"
       stroke="#449FDB"
       y2="768"
       x2="48"
       y1="0"
       x1="48"
       stroke-width="1" />
    <line
       id="line3574"
       opacity="1"
       stroke="#449FDB"
       y2="768"
       x2="64"
       y1="0"
       x1="64"
       stroke-width="1" />
    <line
       id="line3576"
       opacity="0.3"
       stroke="#449FDB"
       y2="768"
       x2="80"
       y1="0"
       x1="80"
       stroke-width="1" />
    <line
       id="line3578"
       opacity="1"
       stroke="#449FDB"
       y2="768"
       x2="96"
       y1="0"
       x1="96"
       stroke-width="1" />
    <line
       id="line3580"
       opacity="0.3"
       stroke="#449FDB"
       y2="768"
       x2="112"
       y1="0"
       x1="112"
       stroke-width="1" />
    <line
       id="line3582"
       opacity="1"
       stroke="#449FDB"
       y2="768"
       x2="128"
       y1="0"
       x1="128"
       stroke-width="1" />
    <line
       id="line3584"
       opacity="0.3"
       stroke="#449FDB"
       y2="768"
       x2="144"
       y1="0"
       x1="144"
       stroke-width="1" />
    <line
       id="line3586"
       opacity="1"
       stroke="#449FDB"
       y2="768"
       x2="160"
       y1="0"
       x1="160"
       stroke-width="1" />
    <line
       id="line3588"
       opacity="0.3"
       stroke="#449FDB"
       y2="768"
       x2="176"
       y1="0"
       x1="176"
       stroke-width="1" />
    <line
       id="line3590"
       opacity="1"
       stroke="#449FDB"
       y2="768"
       x2="192"
       y1="0"
       x1="192"
       stroke-width="1" />
    <line
       id="line3592"
       opacity="0.3"
       stroke="#449FDB"
       y2="768"
       x2="208"
       y1="0"
       x1="208"
       stroke-width="1" />
    <line
       id="line3594"
       opacity="1"
       stroke="#449FDB"
       y2="768"
       x2="224"
       y1="0"
       x1="224"
       stroke-width="1" />
    <line
       id="line3596"
       opacity="0.3"
       stroke="#449FDB"
       y2="768"
       x2="240"
       y1="0"
       x1="240"
       stroke-width="1" />
    <line
       id="line3598"
       opacity="1"
       stroke="#449FDB"
       y2="768"
       x2="256"
       y1="0"
       x1="256"
       stroke-width="1" />
    <line
       id="line3600"
       opacity="0.3"
       stroke="#449FDB"
       y2="768"
       x2="272"
       y1="0"
       x1="272"
       stroke-width="1" />
    <line
       id="line3602"
       opacity="1"
       stroke="#449FDB"
       y2="768"
       x2="288"
       y1="0"
       x1="288"
       stroke-width="1" />
    <line
       id="line3604"
       opacity="0.3"
       stroke="#449FDB"
       y2="768"
       x2="304"
       y1="0"
       x1="304"
       stroke-width="1" />
    <line
       id="line3606"
       opacity="1"
       stroke="#449FDB"
       y2="768"
       x2="320"
       y1="0"
       x1="320"
       stroke-width="1" />
    <line
       id="line3608"
       opacity="0.3"
       stroke="#449FDB"
       y2="768"
       x2="336"
       y1="0"
       x1="336"
       stroke-width="1" />
    <line
       id="line3610"
       opacity="1"
       stroke="#449FDB"
       y2="768"
       x2="352"
       y1="0"
       x1="352"
       stroke-width="1" />
    <line
       id="line3612"
       opacity="0.3"
       stroke="#449FDB"
       y2="768"
       x2="368"
       y1="0"
       x1="368"
       stroke-width="1" />
    <line
       id="line3614"
       opacity="1"
       stroke="#449FDB"
       y2="768"
       x2="384"
       y1="0"
       x1="384"
       stroke-width="1" />
    <line
       id="line3616"
       opacity="0.3"
       stroke="#449FDB"
       y2="768"
       x2="400"
       y1="0"
       x1="400"
       stroke-width="1" />
    <line
       id="line3618"
       opacity="1"
       stroke="#449FDB"
       y2="768"
       x2="416"
       y1="0"
       x1="416"
       stroke-width="1" />
    <line
       id="line3620"
       opacity="0.3"
       stroke="#449FDB"
       y2="768"
       x2="432"
       y1="0"
       x1="432"
       stroke-width="1" />
    <line
       id="line3622"
       opacity="1"
       stroke="#449FDB"
       y2="768"
       x2="448"
       y1="0"
       x1="448"
       stroke-width="1" />
    <line
       id="line3624"
       opacity="0.3"
       stroke="#449FDB"
       y2="768"
       x2="464"
       y1="0"
       x1="464"
       stroke-width="1" />
    <line
       id="line3626"
       opacity="1"
       stroke="#449FDB"
       y2="768"
       x2="480"
       y1="0"
       x1="480"
       stroke-width="1" />
    <line
       id="line3628"
       opacity="0.3"
       stroke="#449FDB"
       y2="768"
       x2="496"
       y1="0"
       x1="496"
       stroke-width="1" />
    <line
       id="line3630"
       opacity="1"
       stroke="#449FDB"
       y2="768"
       x2="512"
       y1="0"
       x1="512"
       stroke-width="1" />
    <line
       id="line3632"
       opacity="0.3"
       stroke="#449FDB"
       y2="768"
       x2="528"
       y1="0"
       x1="528"
       stroke-width="1" />
    <line
       id="line3634"
       opacity="1"
       stroke="#449FDB"
       y2="768"
       x2="544"
       y1="0"
       x1="544"
       stroke-width="1" />
    <line
       id="line3636"
       opacity="0.3"
       stroke="#449FDB"
       y2="768"
       x2="560"
       y1="0"
       x1="560"
       stroke-width="1" />
    <line
       id="line3638"
       opacity="1"
       stroke="#449FDB"
       y2="768"
       x2="576"
       y1="0"
       x1="576"
       stroke-width="1" />
    <line
       id="line3640"
       opacity="0.3"
       stroke="#449FDB"
       y2="768"
       x2="592"
       y1="0"
       x1="592"
       stroke-width="1" />
    <line
       id="line3642"
       opacity="1"
       stroke="#449FDB"
       y2="768"
       x2="608"
       y1="0"
       x1="608"
       stroke-width="1" />
    <line
       id="line3644"
       opacity="0.3"
       stroke="#449FDB"
       y2="768"
       x2="624"
       y1="0"
       x1="624"
       stroke-width="1" />
    <line
       id="line3646"
       opacity="1"
       stroke="#449FDB"
       y2="768"
       x2="640"
       y1="0"
       x1="640"
       stroke-width="1" />
    <line
       id="line3648"
       opacity="0.3"
       stroke="#449FDB"
       y2="768"
       x2="656"
       y1="0"
       x1="656"
       stroke-width="1" />
    <line
       id="line3650"
       opacity="0.3"
       stroke="#449FDB"
       y2="16"
       x2="672"
       y1="16"
       x1="0"
       stroke-width="1" />
    <line
       id="line3652"
       opacity="1"
       stroke="#449FDB"
       y2="32"
       x2="672"
       y1="32"
       x1="0"
       stroke-width="1" />
    <line
       id="line3654"
       opacity="0.3"
       stroke="#449FDB"
       y2="48"
       x2="672"
       y1="48"
       x1="0"
       stroke-width="1" />
    <line
       id="line3656"
       opacity="1"
       stroke="#449FDB"
       y2="64"
       x2="672"
       y1="64"
       x1="0"
       stroke-width="1" />
    <line
       id="line3658"
       opacity="0.3"
       stroke="#449FDB"
       y2="80"
       x2="672"
       y1="80"
       x1="0"
       stroke-width="1" />
    <line
       id="line3660"
       opacity="1"
       stroke="#449FDB"
       y2="96"
       x2="672"
       y1="96"
       x1="0"
       stroke-width="1" />
    <line
       id="line3662"
       opacity="0.3"
       stroke="#449FDB"
       y2="112"
       x2="672"
       y1="112"
       x1="0"
       stroke-width="1" />
    <line
       id="line3664"
       opacity="1"
       stroke="#449FDB"
       y2="128"
       x2="672"
       y1="128"
       x1="0"
       stroke-width="1" />
    <line
       id="line3666"
       opacity="0.3"
       stroke="#449FDB"
       y2="144"
       x2="672"
       y1="144"
       x1="0"
       stroke-width="1" />
    <line
       id="line3668"
       opacity="1"
       stroke="#449FDB"
       y2="160"
       x2="672"
       y1="160"
       x1="0"
       stroke-width="1" />
    <line
       id="line3670"
       opacity="0.3"
       stroke="#449FDB"
       y2="176"
       x2="672"
       y1="176"
       x1="0"
       stroke-width="1" />
    <line
       id="line3672"
       opacity="1"
       stroke="#449FDB"
       y2="192"
       x2="672"
       y1="192"
       x1="0"
       stroke-width="1" />
    <line
       id="line3674"
       opacity="0.3"
       stroke="#449FDB"
       y2="208"
       x2="672"
       y1="208"
       x1="0"
       stroke-width="1" />
    <line
       id="line3676"
       opacity="1"
       stroke="#449FDB"
       y2="224"
       x2="672"
       y1="224"
       x1="0"
       stroke-width="1" />
    <line
       id="line3678"
       opacity="0.3"
       stroke="#449FDB"
       y2="240"
       x2="672"
       y1="240"
       x1="0"
       stroke-width="1" />
    <line
       id="line3680"
       opacity="1"
       stroke="#449FDB"
       y2="256"
       x2="672"
       y1="256"
       x1="0"
       stroke-width="1" />
    <line
       id="line3682"
       opacity="0.3"
       stroke="#449FDB"
       y2="272"
       x2="672"
       y1="272"
       x1="0"
       stroke-width="1" />
    <line
       id="line3684"
       opacity="1"
       stroke="#449FDB"
       y2="288"
       x2="672"
       y1="288"
       x1="0"
       stroke-width="1" />
    <line
       id="line3686"
       opacity="0.3"
       stroke="#449FDB"
       y2="304"
       x2="672"
       y1="304"
       x1="0"
       stroke-width="1" />
    <line
       id="line3688"
       opacity="1"
       stroke="#449FDB"
       y2="320"
       x2="672"
       y1="320"
       x1="0"
       stroke-width="1" />
    <line
       id="line3690"
       opacity="0.3"
       stroke="#449FDB"
       y2="336"
       x2="672"
       y1="336"
       x1="0"
       stroke-width="1" />
    <line
       id="line3692"
       opacity="1"
       stroke="#449FDB"
       y2="352"
       x2="672"
       y1="352"
       x1="0"
       stroke-width="1" />
    <line
       id="line3694"
       opacity="0.3"
       stroke="#449FDB"
       y2="368"
       x2="672"
       y1="368"
       x1="0"
       stroke-width="1" />
    <line
       id="line3696"
       opacity="1"
       stroke="#449FDB"
       y2="384"
       x2="672"
       y1="384"
       x1="0"
       stroke-width="1" />
    <line
       id="line3698"
       opacity="0.3"
       stroke="#449FDB"
       y2="400"
       x2="672"
       y1="400"
       x1="0"
       stroke-width="1" />
    <line
       id="line3700"
       opacity="1"
       stroke="#449FDB"
       y2="416"
       x2="672"
       y1="416"
       x1="0"
       stroke-width="1" />
    <line
       id="line3702"
       opacity="0.3"
       stroke="#449FDB"
       y2="432"
       x2="672"
       y1="432"
       x1="0"
       stroke-width="1" />
    <line
       id="line3704"
       opacity="1"
       stroke="#449FDB"
       y2="448"
       x2="672"
       y1="448"
       x1="0"
       stroke-width="1" />
    <line
       id="line3706"
       opacity="0.3"
       stroke="#449FDB"
       y2="464"
       x2="672"
       y1="464"
       x1="0"
       stroke-width="1" />
    <line
       id="line3708"
       opacity="1"
       stroke="#449FDB"
       y2="480"
       x2="672"
       y1="480"
       x1="0"
       stroke-width="1" />
    <line
       id="line3710"
       opacity="0.3"
       stroke="#449FDB"
       y2="496"
       x2="672"
       y1="496"
       x1="0"
       stroke-width="1" />
    <line
       id="line3712"
       opacity="1"
       stroke="#449FDB"
       y2="512"
       x2="672"
       y1="512"
       x1="0"
       stroke-width="1" />
    <line
       id="line3714"
       opacity="0.3"
       stroke="#449FDB"
       y2="528"
       x2="672"
       y1="528"
       x1="0"
       stroke-width="1" />
    <line
       id="line3716"
       opacity="1"
       stroke="#449FDB"
       y2="544"
       x2="672"
       y1="544"
       x1="0"
       stroke-width="1" />
    <line
       id="line3718"
       opacity="0.3"
       stroke="#449FDB"
       y2="560"
       x2="672"
       y1="560"
       x1="0"
       stroke-width="1" />
    <line
       id="line3720"
       opacity="1"
       stroke="#449FDB"
       y2="576"
       x2="672"
       y1="576"
       x1="0"
       stroke-width="1" />
    <line
       id="line3722"
       opacity="0.3"
       stroke="#449FDB"
       y2="592"
       x2="672"
       y1="592"
       x1="0"
       stroke-width="1" />
    <line
       id="line3724"
       opacity="1"
       stroke="#449FDB"
       y2="608"
       x2="672"
       y1="608"
       x1="0"
       stroke-width="1" />
    <line
       id="line3726"
       opacity="0.3"
       stroke="#449FDB"
       y2="624"
       x2="672"
       y1="624"
       x1="0"
       stroke-width="1" />
    <line
       id="line3728"
       opacity="1"
       stroke="#449FDB"
       y2="640"
       x2="672"
       y1="640"
       x1="0"
       stroke-width="1" />
    <line
       id="line3730"
       opacity="0.3"
       stroke="#449FDB"
       y2="656"
       x2="672"
       y1="656"
       x1="0"
       stroke-width="1" />
    <line
       id="line3732"
       opacity="1"
       stroke="#449FDB"
       y2="672"
       x2="672"
       y1="672"
       x1="0"
       stroke-width="1" />
    <line
       id="line3734"
       opacity="0.3"
       stroke="#449FDB"
       y2="688"
       x2="672"
       y1="688"
       x1="0"
       stroke-width="1" />
    <line
       id="line3736"
       opacity="1"
       stroke="#449FDB"
       y2="704"
       x2="672"
       y1="704"
       x1="0"
       stroke-width="1" />
    <line
       id="line3738"
       opacity="0.3"
       stroke="#449FDB"
       y2="720"
       x2="672"
       y1="720"
       x1="0"
       stroke-width="1" />
    <line
       id="line3740"
       opacity="1"
       stroke="#449FDB"
       y2="736"
       x2="672"
       y1="736"
       x1="0"
       stroke-width="1" />
    <line
       id="line3742"
       opacity="0.3"
       stroke="#449FDB"
       y2="752"
       x2="672"
       y1="752"
       x1="0"
       stroke-width="1" />
  </g>
  <circle
     r="31.593596"
     cy="394.29819"
     cx="356.73883"
     id="path6142"
     style="fill:#000000;fill-opacity:1;fill-rule:evenodd" />
  <g
     id="g6230">
    <path
       id="rect6144"
       style="fill:#000000;fill-opacity:1;fill-rule:evenodd"
       d="m 579.28662,249.60242 31.38155,0 0,288.79513 -31.38155,0 z M 463.09,392.26948 A 106.44285,108.13915 0 0 1 356.64716,500.40864 106.44285,108.13915 0 0 1 250.20431,392.26948 106.44285,108.13915 0 0 1 356.64716,284.13033 106.44285,108.13915 0 0 1 463.09,392.26948 Z M 36.894534,150.54667 l 27.564881,0 0,471.99558 19.93153,0 0,-39.86306 558.930975,0 0,-375.73054 -552.993924,0 0,-67.85201 -55.129763,0 0,11.8741" />
    <rect
       style="fill:#000000;fill-opacity:1;fill-rule:evenodd"
       id="rect6151"
       width="18.235229"
       height="101.35395"
       x="46.648262"
       y="242.3302" />
    <rect
       style="fill:#000000;fill-opacity:1;fill-rule:evenodd"
       id="rect6153"
       width="17.811153"
       height="43.255661"
       x="46.648262"
       y="396.9343" />
    <rect
       style="fill:#000000;fill-opacity:1;fill-rule:evenodd"
       id="rect6153-4"
       width="17.811153"
       height="43.255661"
       x="47.072334"
       y="473.69189" />
  </g>
</svg>
